<svg width="867" height="68" viewBox="0 0 867 68" fill="none" xmlns="http://www.w3.org/2000/svg">
<path fill-rule="evenodd" clip-rule="evenodd" d="M84.2419 0.92865L135.101 67.5H78.226L46.8149 28.2018L19.9934 58.5H33.307L47.5 42.5L53.4111 49.9352L37.4358 67.5H0.00634766L47.1663 14.2268L82.554 58.5H116.899L83.7207 15.0713L70 29.5L64.6348 23.0123L84.2419 0.92865Z" fill="black"/>
<path d="M183.278 8.40001H160.268V63H183.668C195.992 63 203.324 57.462 203.324 48.18C203.324 40.692 198.722 35.544 190.844 34.374C197.24 33.048 200.906 28.446 200.906 22.05C200.906 13.47 194.276 8.40001 183.278 8.40001ZM182.966 32.034H166.508V14.172H182.966C190.298 14.172 194.588 17.37 194.588 22.986C194.588 28.758 190.298 32.034 182.966 32.034ZM182.966 57.228H166.508V37.806H182.966C191.858 37.806 197.006 41.316 197.006 47.4C197.006 53.718 191.858 57.228 182.966 57.228Z" fill="black"/>
<path d="M216.102 8.40001V63H246.288V57.228H222.342V8.40001H216.102Z" fill="black"/>
<path d="M297.644 63H304.43L280.016 8.40001H273.542L249.05 63H255.68L261.764 49.038H291.482L297.644 63ZM264.338 43.266L276.584 15.186L288.986 43.266H264.338Z" fill="black"/>
<path d="M351.244 20.724L354.988 16.2C349.762 11.286 342.508 8.24401 335.02 8.24401C319.186 8.24401 306.55 20.334 306.55 35.622C306.55 51.066 319.03 63.234 334.786 63.234C342.352 63.234 349.684 60.036 355.066 54.966L351.244 50.832C346.954 54.888 341.104 57.384 335.098 57.384C322.774 57.384 312.868 47.634 312.868 35.622C312.868 23.532 322.774 13.938 335.098 13.938C341.104 13.938 347.032 16.512 351.244 20.724Z" fill="black"/>
<path d="M410.929 63L387.607 32.19L409.291 8.40001H401.881L372.553 40.146V8.40001H366.313V63H372.553V48.726L383.161 37.026L403.285 63H410.929Z" fill="black"/>
<path d="M437.405 8.40001V63H448.559V26.184L463.066 57.462H471.1L485.608 26.184V63H496.685V8.40001H482.957L467.122 41.784L451.211 8.40001H437.405Z" fill="black"/>
<path d="M534.206 8.01001C517.514 8.01001 504.878 19.788 504.878 35.7C504.878 51.534 517.514 63.546 534.206 63.546C550.898 63.546 563.534 51.456 563.534 35.7C563.534 19.866 550.898 8.01001 534.206 8.01001ZM534.362 18.774C543.488 18.774 550.898 26.106 550.898 35.7C550.898 45.294 543.488 52.782 534.362 52.782C525.236 52.782 517.514 45.294 517.514 35.7C517.514 26.106 525.158 18.774 534.362 18.774Z" fill="black"/>
<path d="M582.929 40.146V8.40001H570.605V40.146C570.605 54.576 580.277 63.546 595.409 63.546C610.463 63.546 619.901 54.576 619.901 40.146V8.40001H607.577V40.146C607.577 48.024 602.741 52.782 595.409 52.782C588.077 52.782 582.929 48.024 582.929 40.146Z" fill="black"/>
<path d="M630.881 8.40001V63H642.659V27.978L669.101 63H680.333V8.40001H668.633V43.5L642.113 8.40001H630.881Z" fill="black"/>
<path d="M686.97 8.40001V18.852H703.584V63H715.908V18.852H732.6V8.40001H686.97Z" fill="black"/>
<path d="M773.811 63H786.993L763.671 8.40001H750.957L727.245 63H739.959L744.249 52.392H769.521L773.811 63ZM748.305 42.486L756.963 21.27L765.543 42.486H748.305Z" fill="black"/>
<path d="M792.67 8.40001V63H804.994V8.40001H792.67Z" fill="black"/>
<path d="M817.121 8.40001V63H828.899V27.978L855.341 63H866.573V8.40001H854.873V43.5L828.353 8.40001H817.121Z" fill="black"/>
</svg>
